<svg width="69" height="69" viewBox="0 0 69 69" fill="none" xmlns="http://www.w3.org/2000/svg">
<path fill-rule="evenodd" clip-rule="evenodd" d="M34.5 69C53.5538 69 69 53.5538 69 34.5C69 15.4462 53.5538 0 34.5 0C15.4462 0 0 15.4462 0 34.5C0 53.5538 15.4462 69 34.5 69Z" fill="#5454D4" fill-opacity="0.1"/>
<path d="M27.0133 46.3334H40.9867C44.6667 46.3334 46.1333 44.08 46.3067 41.3334L47 30.32C47.1867 27.44 44.8933 25 42 25C41.1867 25 40.44 24.5334 40.0667 23.8134L39.1067 21.88C38.4933 20.6667 36.8933 19.6667 35.5333 19.6667H32.48C31.1067 19.6667 29.5067 20.6667 28.8933 21.88L27.9333 23.8134C27.56 24.5334 26.8133 25 26 25C23.1067 25 20.8133 27.44 21 30.32L21.6933 41.3334C21.8533 44.08 23.3333 46.3334 27.0133 46.3334Z" stroke="#5454D4" stroke-width="2" stroke-linecap="round" stroke-linejoin="round"/>
<path d="M32 27.6667H36" stroke="#5454D4" stroke-width="2" stroke-linecap="round" stroke-linejoin="round"/>
<path d="M34 41C36.3867 41 38.3333 39.0533 38.3333 36.6666C38.3333 34.28 36.3867 32.3333 34 32.3333C31.6133 32.3333 29.6667 34.28 29.6667 36.6666C29.6667 39.0533 31.6133 41 34 41Z" stroke="#5454D4" stroke-width="2" stroke-linecap="round" stroke-linejoin="round"/>
</svg>
